# xmcd
#
# Track frame offsets:
#	150
#	20981
#	43113
#	65772
#	99164
#	119247
#	140869
#	167624
#	184193
#	210646
#	227410
#	240901
#	261433
#
# Disc length: 3713 seconds
# Revision: 1
# Processed by: cddbd v1.5.2PL0 Copyright (c) Steve Scherf et al.
# Submitted via: dBpowerAMP V12.0
#
DISCID=c10e7f0d
DTITLE=Second Draw - The Last Draw
DYEAR=2017
DGENRE=Bluegrass
TTITLE0=California
TTITLE1=Changes Made
TTITLE2=Riding Outside Of The Car
TTITLE3=Take Me
TTITLE4=Start Living
TTITLE5=Emily
TTITLE6=So Many Dreams Of Love
TTITLE7=The Last Draw
TTITLE8=Leaves On The Water
TTITLE9=So Good To Be True
TTITLE10=Lost Highway
TTITLE11=Time To Go
TTITLE12=Cincinnati Blues
EXTD=
EXTT0=
EXTT1=
EXTT2=
EXTT3=
EXTT4=
EXTT5=
EXTT6=
EXTT7=
EXTT8=
EXTT9=
EXTT10=
EXTT11=
EXTT12=
PLAYORDER=
